Source: DVD

Subtitle: English, Serbian, Croatian

 
http://www.imdb.com/title/tt0236285/

 
http://www.arturosandoval.com/
 
http://en.wikipedia.org/wiki/Arturo_Sandoval

CAST: Andy Garcia, Mía Maestro, Gloria Estefan, David Paymer, Charles S. Dutton, Steven Bauer, Fionnula Flanagan

PLOT:
-----
World-class trumpeter Arturo Sandoval was a shining light in Cuba's exciting jazz scene and championed by jazz legend Dizzy Gillespie as one of the greatest musicians he'd ever heard. But as Sandoval's fame grew, so did his discomfort with Fidel Castro and Cuba's Communist leadership. Though Sandoval longed to leave Cuba and emigrate to the United States, where he could enjoy political freedom and make the most of his gifts as a musician, one thing held him back -- his love for his wife and children, whom he could not bear to leave behind. For Love or Country: The Arturo Sandoval Story is a made-for-cable drama based on the true story of Sandoval's career, his eventual flight to the United States with his family,
and the unexpected roadblocks that nearly prevented him from becoming a naturalized American citizen. Andy Garcia stars as Arturo Sandoval, with Mia Maestro co-starring as his wife Marianela; Gloria Estefan, Tomas Milan, and Miriam Colon highlight the supporting cast.

   General
--------------
     Format : AVI
      Format/Info : Audio Video Interleave
      File size : 1.37 GiB
      Duration : 1h 55mn
      Overall bit rate : 1 701 Kbps
      Writing application : VirtualDubMod 1.5.4.1 (build 2178/release)
      Writing library : VirtualDubMod build 2178/release

   Video
---------------
      Format : MPEG-4 Visual
      Format profile : Advanced Simple@L5
      Format settings, BVOP : 1
      Format settings, QPel : No
      Format settings, GMC : No warppoints
      Format settings, Matrix : Custom
      Codec ID : XVID
      Codec ID/Hint : XviD
      Duration : 1h 55mn
      Bit rate : 1 565 Kbps
      Width : 640 pixels
      Height : 480 pixels
      Display aspect ratio : 4:3
      Frame rate : 25.000 fps
      Color space : YUV
      Chroma subsampling : 4:2:0
      Bit depth : 8 bits
      Scan type : Progressive
      Compression mode : Lossy
      Bits/(Pixel*Frame) : 0.204
      Stream size : 1.26 GiB (92%)
      Writing library : XviD 64


   Audio
-----------------
      Format : MPEG Audio
      Format version : Version 1
      Format profile : Layer 3
      Mode : Joint stereo
      Mode extension : MS Stereo
      Codec ID : 55
      Codec ID/Hint : MP3
      Duration : 1h 55mn
      Bit rate mode : Constant
      Bit rate : 128 Kbps
      Channel(s) : 2 channels
      Sampling rate : 48.0 KHz
      Compression mode : Lossy
      Stream size : 105 MiB (8%)
      Alignment : Aligned on interleaves
      Interleave, duration : 80 ms (2.00 video frames)
      Interleave, preload duration : 504 ms
      Writing library : LAME3.99r
      Encoding settings : -m j -V 4 -q 2 -lowpass 17 -b 128
      Language : English